<?xml version="1.0" encoding="utf-8"?>
<!-- Generator: Adobe Illustrator 16.0.0, SVG Export Plug-In . SVG Version: 6.00 Build 0)  -->
<!DOCTYPE svg PUBLIC "-//W3C//DTD SVG 1.1//EN" "http://www.w3.org/Graphics/SVG/1.1/DTD/svg11.dtd">
<svg version="1.1" id="Capa_2" xmlns="http://www.w3.org/2000/svg" xmlns:xlink="http://www.w3.org/1999/xlink" x="0px" y="0px"
	 width="248.704px" height="172.645px" viewBox="0 0 248.704 172.645" enable-background="new 0 0 248.704 172.645"
	 xml:space="preserve">
<g>
	<g>
		<path fill="#CA1F24" d="M110.935,160.645l-29.729-42.028l-29.382,42.028H10v-151h40v77.721L98.697,26.89l0.182,3.043
			c5.719-20.029,28.013-20.288,29.078-20.288H239V45.25l-3.508-0.009c-0.768-0.002-76.925-0.185-88.887-0.185
			c0,0-0.357-0.01-0.458-0.01c-1.455,0-2.019,0.442-2.317,0.774c-0.947,1.059-1.042,3.316-0.94,4.244
			c0.017,0.163,0.224,2.341,0.573,8.227c0.653,3.294,2.014,5.104,3.843,5.104c0.032,0,0.061-0.001,0.084-0.002l0.394-0.102
			l0.229,0.056c0.261,0.003,26.452,0.257,56.97,0.896c1.005-0.055,2.002-0.082,2.964-0.082c9.852,0,17.63,2.817,22.873,8.372
			c7.266,7.699,7.18,17.89,7.18,19.188v28.294c1,14.891-1.82,26.001-8.348,33.024c-6.377,6.861-14.507,7.603-17.652,7.603H110.935z
			 M131.917,117.159c5.695,0.066,24.152,0.267,38.867,0.267c12.736,0,17.374-0.151,19.022-0.277c1.602-0.124,2.793-0.527,3.186-1.08
			c0.316-0.445,0.212-1.206,0.151-1.438l-0.163-0.515l0.021-0.471v-8.563l0.024-0.205c0.256-2.156-0.422-2.951-0.645-3.212
			c-0.974-1.142-2.93-1.462-3.602-1.489c0,0,0,0-0.001,0c-0.147,0-27.199-0.181-54.262-0.396c-1.161,0.108-2.318,0.164-3.442,0.164
			c-5.458,0-10.159-1.302-14.167-3.406L131.917,117.159z"/>
		<path fill="#FFFFFF" d="M128,13.645L128,13.645h107v28.097c0,0-76.541-0.185-88.646-0.185c-0.156-0.007-0.184-0.01-0.333-0.01
			c-7.844,0-6.67,8.928-6.67,8.928s0.243,2.189,0.6,8.252c1.381,7.423,5.673,8.17,7.339,8.17c0.42,0,0.682-0.048,0.682-0.048
			s26.158,0.25,57.067,0.898c1.002-0.057,1.846-0.084,2.781-0.084C235.513,67.665,234,91.645,234,91.645v-0.239
			c0,0,0,2.888,0,28.739c3,32.422-14.5,37.5-22,37.5s-99.253,0-99.253,0l-31.558-44.613L50,157.645H13v-144h33v83.647l49.495-61.155
			c0,0,1.314,19.871,2.179,29.598c-0.648,9.51,1.542,12.536,1.542,12.536l30.873,42.366c0,0,22.916,0.288,40.68,0.288
			c8.882,0,16.239-0.072,19.048-0.288c8.43-0.648,6.184-6.992,6.184-6.992v-8.355c1-8.43-7.367-8.611-7.367-8.611
			s-27.161-0.183-54.396-0.398c-1.133,0.111-2.166,0.165-3.227,0.165c-23.625,0-29.535-26.468-29.535-26.468
			s-0.2-5.019-0.417-30.957c0.844-25.327,25.727-25.375,26.898-25.375 M127.957,6.645c-7.758,0-20.35,2.916-27.809,13.113
			L90.042,31.872L53,77.438V13.145v-6.5h-6.5h-33H6v6.5v144v7.5h7.5H50h3.647l2.09-3.239l25.485-36.58l25.809,36.674l2.092,3.146
			h3.623H212c3.604,0,12.652-1.1,19.966-8.97c7.196-7.743,10.034-19.946,9.034-35.782V91.804c0-2.125,0.208-13.095-7.884-21.67
			c-5.93-6.284-14.377-9.471-25.231-9.471c-0.982,0-1.965,0.027-2.988,0.08c-30.483-0.638-56.604-0.892-56.866-0.895l-0.377-0.003
			c-0.178-0.283-0.471-0.887-0.716-2.016c-0.344-5.76-0.549-7.937-0.558-8.028l-0.014-0.147c-0.023-0.332,0-0.708,0.051-1.056
			l0.04,0.046h0.148c11.958,0,87.861,0.139,88.629,0.141L242,48.758v-7.017V13.145v-6.5h-6.5H128.043H127.957L127.957,6.645z
			 M133.712,113.678l-7.7-10.577c1.646,0.229,3.333,0.344,5.061,0.344c1.174,0,2.379-0.055,3.588-0.162
			c25.66,0.203,51.576,0.378,53.994,0.395c0.295,0.029,0.673,0.125,0.926,0.228c0.003,0.129-0.252,0.313-0.281,0.561l-0.299,0.41
			v0.414v8.355v0.016c-1,0.121-5.939,0.265-18.466,0.265C157.109,113.925,140.813,113.758,133.712,113.678L133.712,113.678z"/>
	</g>
	<g>
		<path d="M172.15,7C204.57,7,241,7.112,241,7.112v41.533l-94.74,0.2l0.996,10.969l65.375,1.167c0,0,27.704,1.634,28.637,27.771
			s0.009,38.738,0.009,38.738s3.217,35.905-30.231,37.806c-12.313,0.155-27.782,0.207-42.934,0.207
			c-30.306,0-59.344-0.207-59.344-0.207l-27.244-39.834l-27.475,40.184H7v-158h46v70l44.302-54.937c0,0,9.939-15.596,29.883-15.596
			c0.523,0,1.02,0.011,1.557,0.033C137.121,7.035,153.968,7,172.15,7 M172.293,0c-21.338,0-35.92,0.048-43.351,0.143
			c-0.561-0.021-1.125-0.031-1.68-0.031c-21.882,0-33.693,15.642-35.61,18.451L60,57.759V7.145v-6.5h-6.69H6.81H0v6.5v158v7.5h6.81
			h47.242h3.681l2.086-3.282l21.673-31.626l21.49,31.556l2.065,3.008l3.674,0.011c0.291,0.002,29.411,0.199,59.395,0.199
			c17.626,0,32.102-0.073,43.024-0.212l0.154-0.004l0.154-0.01c11.411-0.647,20.474-4.772,26.939-12.257
			c10.489-12.145,10.117-29.051,9.915-32.542c0.167-2.677,0.823-15.37-0.02-38.984c-0.603-16.865-10.347-25.428-18.415-29.642
			c-2.757-1.439-5.475-2.457-7.896-3.174l19.187-0.041L248,55.63v-6.985V7.112V0.133l-6.835-0.021
			C240.799,0.111,204.353,0,172.293,0L172.293,0z"/>
	</g>
	<g>
		<polygon points="189,103.645 126.097,103.991 133.761,114.645 189,114.645 189,103.645 		"/>
	</g>
</g>
</svg>
