<?xml version="1.0" encoding="utf-8"?>
<!-- Generator: Adobe Illustrator 16.0.0, SVG Export Plug-In . SVG Version: 6.00 Build 0)  -->
<!DOCTYPE svg PUBLIC "-//W3C//DTD SVG 1.1//EN" "http://www.w3.org/Graphics/SVG/1.1/DTD/svg11.dtd">
<svg version="1.1" id="Capa_1" xmlns="http://www.w3.org/2000/svg" xmlns:xlink="http://www.w3.org/1999/xlink" x="0px" y="0px"
	 width="435.083px" height="33.164px" viewBox="0 0 435.083 33.164" enable-background="new 0 0 435.083 33.164"
	 xml:space="preserve">
<g>
	<path fill="#211915" d="M34.601,33.164V0h27.164v9.211h-18v3.586h16.008v7.594H43.765V24h19.992v9.164H34.601z"/>
	<path fill="#211915" d="M98.796,33.164V11.391c0-0.281-0.063-0.555-0.188-0.82s-0.289-0.5-0.492-0.703s-0.438-0.363-0.703-0.48
		s-0.539-0.176-0.82-0.176H92v23.953h-9.211V9.211h-6.797v23.953h-9.164V0h30.58c2.908,0,5.401,1.039,7.48,3.117
		c2.08,2.078,3.119,4.57,3.119,7.477v22.57H98.796z"/>
	<path fill="#211915" d="M144.219,14.602c0,2.906-1.039,5.398-3.117,7.477s-4.57,3.117-7.477,3.117h-13.406v7.969h-9.164V0h22.57
		c2.906,0,5.398,1.039,7.477,3.117s3.117,4.57,3.117,7.477V14.602z M135.008,11.383c0-0.28-0.059-0.553-0.176-0.817
		s-0.277-0.498-0.48-0.7s-0.438-0.362-0.703-0.479c-0.266-0.117-0.539-0.176-0.82-0.176h-12.609v6.773h12.609
		c0.281,0,0.555-0.063,0.82-0.187c0.266-0.125,0.5-0.288,0.703-0.49c0.203-0.203,0.363-0.437,0.48-0.701s0.176-0.537,0.176-0.817
		V11.383z"/>
	<path fill="#211915" d="M147.29,33.164V0h27.164v9.211h-18v3.586h16.008v7.594h-16.008V24h19.992v9.164H147.29z"/>
	<path fill="#211915" d="M212.681,22.992c0,2.719-0.969,5.094-2.906,7.125s-4.234,3.047-6.891,3.047h-21.398V24h20.203
		c0.234,0,0.457-0.051,0.668-0.152s0.398-0.234,0.563-0.398s0.297-0.355,0.398-0.574s0.152-0.445,0.152-0.68
		s-0.051-0.461-0.152-0.68s-0.234-0.41-0.398-0.574s-0.352-0.297-0.563-0.398s-0.434-0.152-0.668-0.152h-12.398
		c-2.672,0-4.969-1.023-6.891-3.07c-1.922-2.031-2.883-4.406-2.883-7.125c0-2.688,0.961-5.055,2.883-7.102
		C184.322,1.031,186.619,0,189.291,0h21.398v9.211h-20.203c-0.234,0-0.461,0.051-0.68,0.152s-0.41,0.234-0.574,0.398
		s-0.297,0.352-0.398,0.563s-0.152,0.434-0.152,0.668c0,0.484,0.18,0.906,0.539,1.266s0.781,0.539,1.266,0.539h12.398
		c2.641,0,4.938,1.031,6.891,3.094C211.712,17.922,212.681,20.289,212.681,22.992z"/>
	<path fill="#211915" d="M265.932,22.992c0,2.719-0.969,5.094-2.906,7.125s-4.234,3.047-6.891,3.047h-21.398V24h20.203
		c0.234,0,0.457-0.051,0.668-0.152s0.398-0.234,0.563-0.398s0.297-0.355,0.398-0.574s0.152-0.445,0.152-0.68
		s-0.051-0.461-0.152-0.68s-0.234-0.41-0.398-0.574s-0.352-0.297-0.563-0.398s-0.434-0.152-0.668-0.152h-12.398
		c-2.672,0-4.969-1.023-6.891-3.07c-1.922-2.031-2.883-4.406-2.883-7.125c0-2.688,0.961-5.055,2.883-7.102
		C237.573,1.031,239.87,0,242.542,0h21.398v9.211h-20.203c-0.234,0-0.461,0.051-0.68,0.152s-0.41,0.234-0.574,0.398
		s-0.297,0.352-0.398,0.563s-0.152,0.434-0.152,0.668c0,0.484,0.18,0.906,0.539,1.266s0.781,0.539,1.266,0.539h12.398
		c2.641,0,4.938,1.031,6.891,3.094C264.963,17.922,265.932,20.289,265.932,22.992z"/>
	<path fill="#211915" d="M302.167,22.594c0,2.906-1.039,5.398-3.117,7.477c-2.094,2.063-4.586,3.094-7.477,3.094h-12
		c-2.906,0-5.398-1.031-7.477-3.094c-2.063-2.078-3.094-4.57-3.094-7.477v-12c0-2.891,1.031-5.383,3.094-7.477
		C274.175,1.039,276.667,0,279.574,0h12c2.906,0,5.398,1.039,7.477,3.117s3.117,4.57,3.117,7.477V22.594z M292.957,11.391
		c0-0.609-0.211-1.125-0.633-1.547s-0.938-0.633-1.547-0.633h-10.406c-0.609,0-1.129,0.211-1.559,0.633s-0.645,0.938-0.645,1.547
		v10.406c0,0.313,0.059,0.602,0.176,0.867s0.273,0.496,0.469,0.691s0.426,0.352,0.691,0.469S280.058,24,280.371,24h10.406
		c0.609,0,1.125-0.215,1.547-0.645s0.633-0.949,0.633-1.559V11.391z"/>
	<path fill="#211915" d="M315.808,33.164c-2.906,0-5.398-1.031-7.477-3.094c-2.063-2.078-3.094-4.57-3.094-7.477v-12
		c0-2.891,1.031-5.383,3.094-7.477C310.41,1.039,312.902,0,315.808,0h16.594v9.211h-15.797c-0.609,0-1.129,0.211-1.559,0.633
		s-0.645,0.938-0.645,1.547v10.406c0,0.313,0.059,0.602,0.176,0.867s0.273,0.496,0.469,0.691s0.426,0.352,0.691,0.469
		S316.292,24,316.605,24h17.789v9.164H315.808z"/>
	<path fill="#211915" d="M348.036,33.164c-2.906,0-5.398-1.031-7.477-3.094c-2.063-2.078-3.094-4.57-3.094-7.477v-12
		c0-2.891,1.031-5.383,3.094-7.477C342.637,1.039,345.129,0,348.036,0h16.594v9.211h-15.797c-0.609,0-1.129,0.211-1.559,0.633
		s-0.645,0.938-0.645,1.547v10.406c0,0.313,0.059,0.602,0.176,0.867s0.273,0.496,0.469,0.691s0.426,0.352,0.691,0.469
		S348.52,24,348.833,24h17.789v9.164H348.036z"/>
	<path fill="#211915" d="M369.692,33.164V0h27.164v9.211h-18v3.586h16.008v7.594h-16.008V24h19.992v9.164H369.692z"/>
	<path fill="#211915" d="M435.083,14.602c0,2.906-1.039,5.398-3.117,7.477s-4.57,3.117-7.477,3.117h-1.336l11.203,7.969h-13.664
		l-9.609-7.359v7.359h-9.164V0h22.57c2.906,0,5.398,1.039,7.477,3.117s3.117,4.57,3.117,7.477V14.602z M425.873,11.383
		c0-0.28-0.059-0.553-0.176-0.817s-0.277-0.498-0.48-0.7s-0.438-0.362-0.703-0.479c-0.266-0.117-0.539-0.176-0.82-0.176h-12.609
		v6.773h12.609c0.281,0,0.555-0.063,0.82-0.187c0.266-0.125,0.5-0.288,0.703-0.49c0.203-0.203,0.363-0.437,0.48-0.701
		s0.176-0.537,0.176-0.817V11.383z"/>
</g>
<g>
	<path fill="#211915" stroke="#000000" stroke-miterlimit="10" d="M32.388,33.012h-9.732l-7.523-9.894l-7.528,9.894H0V0.438h7.68
		V20.12L22.657,0.438h9.734L19.97,16.761L32.388,33.012z"/>
</g>
</svg>
