<?xml version="1.0" encoding="utf-8"?>
<!-- Generator: Adobe Illustrator 16.0.0, SVG Export Plug-In . SVG Version: 6.00 Build 0)  -->
<!DOCTYPE svg PUBLIC "-//W3C//DTD SVG 1.1//EN" "http://www.w3.org/Graphics/SVG/1.1/DTD/svg11.dtd">
<svg version="1.1" xmlns="http://www.w3.org/2000/svg" xmlns:xlink="http://www.w3.org/1999/xlink" x="0px" y="0px"
	 width="359.225px" height="173.99px" viewBox="0 0 359.225 173.99" enable-background="new 0 0 359.225 173.99"
	 xml:space="preserve">
<g id="pelota">
	<g>
		<title>soccer ball</title>
		<g>
			<circle fill="#FFFFFF" stroke="#000000" stroke-width="4" stroke-linejoin="round" cx="86.499" cy="86.547" r="84.499"/>
			<path fill="none" stroke="#000000" stroke-width="4" stroke-linejoin="round" d="M28.068,25.52l5.514,5.619 M14.021,115.21
				c8.214,8.217,19.133,6.936,29.375,7.185 M24.76,49.846C7.299,62.329,3.068,87.685,3.708,87.542 M46.952,51.695
				c-1.812,13.265,2.988,27.846,12.946,43.387 M56.093,13.677c5.583-5.584,16.573-9.495,31.047-11.7 M68.362,148.213
				c-1.779,4.694-1.317,11.202-0.285,18.137 M70.282,28.257c10.028,1.139,28.166,2.632,42.534,10.775 M98.448,133.064
				c11.025,6.152,23.08,8.784,37.698,6.401 M124.054,68.053c-8.607,11.878-18.989,22.938-31.011,33.287 M132.483,25.983
				c-3.948-7.362-10.527-13.336-17.747-18.992 M155.493,52.547c3.555,0.107,7.005,1.564,10.314,5.016 M150.229,75.166
				c5.62,10.564,6.438,25.536,7.255,40.544"/>
		</g>
		<path d="M28.744,26.087c8.643-5.439,17.71-10.774,30.443-15.077c5.014,4.161,8.997,10.917,13.229,17.498
			c-10.242,9.778-19.986,19.346-25.748,26.885c-9.744-0.89-14.581-0.07-26.315-2.134C20.457,44.582,23.339,35.513,28.744,26.087z
			 M132.021,24.667c9.637,8.819,19.098,17.711,25.748,28.024c-1.956,9.316-3.733,19.665-6.401,25.036
			c-8.322-1.244-19.062-4.444-29.162-7.114c-4.908-12.693-8.215-22.226-12.092-32.859C117.582,32.206,124.943,27.227,132.021,24.667
			z M15.622,132.531C6.119,117.82,1.42,100.523,2.179,83.027l2.097-0.25c1.921,12.162,4.41,23.971,11.061,33.003
			c-1.28,6.366-0.071,11.488,1.813,16.287L15.622,132.531z M58.19,92.521c12.98,2.134,25.5,4.269,37.698,6.4
			c3.77,11.845,4.268,23.722,5.547,35.564c-9.354,7.753-22.227,10.208-33.572,14.938c-13.229-8.535-18.6-18.067-26.174-27.313
			C46.028,112.117,50.829,102.158,58.19,92.521z M165.344,116.631c-6.367,16.74-17.887,31.026-32.896,40.795l-4.125-0.18
			c2.987-4.517,4.054-10.563,4.197-17.354c8.251-3.947,16.5-16.465,24.751-27.455C160.329,113.505,162.925,114.997,165.344,116.631z
			 M84.01,170.94c-12.281-0.375-24.332-3.421-35.314-8.927c7.077,2.632,13.052,5.084,19.276,2.95
			C69.855,167.632,74.23,169.729,84.01,170.94z"/>
	</g>
</g>
<g id="Capa_2">
	<g>
		<g>
			<path fill="#CA1F24" d="M221.456,161.99l-29.729-42.028l-29.382,42.028h-41.824v-151h40V88.71l48.697-60.476l0.182,3.043
				c5.719-20.029,28.013-20.288,29.078-20.288h111.043v35.605l-3.508-0.009c-0.768-0.002-76.925-0.185-88.887-0.185
				c0,0-0.357-0.01-0.458-0.01c-1.455,0-2.019,0.442-2.317,0.774c-0.947,1.059-1.042,3.316-0.94,4.244
				c0.017,0.163,0.224,2.341,0.573,8.227c0.653,3.294,2.014,5.104,3.843,5.104c0.032,0,0.061-0.001,0.084-0.002l0.394-0.102
				l0.229,0.056c0.261,0.003,26.452,0.257,56.97,0.896c1.005-0.055,2.002-0.082,2.964-0.082c9.852,0,17.63,2.817,22.873,8.372
				c7.266,7.699,7.18,17.89,7.18,19.188v28.294c1,14.891-1.82,26.001-8.348,33.024c-6.377,6.861-14.507,7.603-17.652,7.603H221.456z
				 M242.437,118.503c5.695,0.066,24.152,0.267,38.867,0.267c12.736,0,17.374-0.151,19.022-0.277
				c1.602-0.124,2.793-0.527,3.186-1.08c0.316-0.445,0.212-1.206,0.151-1.438l-0.163-0.515l0.021-0.471v-8.563l0.024-0.205
				c0.256-2.156-0.422-2.951-0.645-3.212c-0.974-1.142-2.93-1.462-3.602-1.489c0,0,0,0-0.001,0c-0.147,0-27.199-0.181-54.262-0.396
				c-1.161,0.108-2.318,0.164-3.442,0.164c-5.458,0-10.159-1.302-14.167-3.406L242.437,118.503z"/>
			<path fill="#FFFFFF" d="M238.521,14.99L238.521,14.99h107v28.097c0,0-76.541-0.185-88.646-0.185
				c-0.156-0.007-0.184-0.01-0.333-0.01c-7.844,0-6.67,8.928-6.67,8.928s0.243,2.189,0.6,8.252c1.381,7.423,5.673,8.17,7.339,8.17
				c0.42,0,0.682-0.048,0.682-0.048s26.158,0.25,57.067,0.898c1.002-0.057,1.846-0.084,2.781-0.084
				c27.693,0.001,26.18,23.981,26.18,23.981V92.75c0,0,0,2.888,0,28.739c3,32.422-14.5,37.5-22,37.5s-99.253,0-99.253,0
				l-31.558-44.613l-31.189,44.613h-37v-144h33v83.647l49.495-61.155c0,0,1.314,19.871,2.179,29.598
				c-0.648,9.51,1.542,12.536,1.542,12.536l30.873,42.366c0,0,22.916,0.288,40.68,0.288c8.882,0,16.239-0.072,19.048-0.288
				c8.43-0.648,6.184-6.992,6.184-6.992v-8.355c1-8.43-7.367-8.611-7.367-8.611s-27.161-0.183-54.396-0.398
				c-1.133,0.111-2.166,0.165-3.227,0.165c-23.625,0-29.535-26.468-29.535-26.468s-0.2-5.019-0.417-30.957
				c0.844-25.327,25.727-25.375,26.898-25.375 M238.478,7.99c-7.758,0-20.35,2.916-27.809,13.113l-10.105,12.114l-37.042,45.566
				V14.49v-6.5h-6.5h-33h-7.5v6.5v144v7.5h7.5h36.5h3.647l2.09-3.239l25.485-36.58l25.809,36.674l2.092,3.146h3.623h99.253
				c3.604,0,12.652-1.1,19.966-8.97c7.196-7.743,10.034-19.946,9.034-35.782V93.149c0-2.125,0.208-13.095-7.884-21.67
				c-5.93-6.284-14.377-9.471-25.231-9.471c-0.982,0-1.965,0.027-2.988,0.08c-30.483-0.638-56.604-0.892-56.866-0.895l-0.377-0.003
				c-0.178-0.283-0.471-0.887-0.716-2.016c-0.344-5.76-0.549-7.937-0.558-8.028L256.886,51c-0.023-0.332,0-0.708,0.051-1.056
				l0.04,0.046h0.148c11.958,0,87.861,0.139,88.629,0.141l6.767-0.027v-7.017V14.49v-6.5h-6.5H238.564H238.478L238.478,7.99z
				 M244.233,115.023l-7.7-10.577c1.646,0.229,3.333,0.344,5.061,0.344c1.174,0,2.379-0.055,3.588-0.162
				c25.66,0.203,51.576,0.378,53.994,0.395c0.295,0.029,0.673,0.125,0.926,0.228c0.003,0.129-0.252,0.313-0.281,0.561l-0.299,0.41
				v0.414v8.355v0.016c-1,0.121-5.939,0.265-18.466,0.265C267.63,115.27,251.333,115.103,244.233,115.023L244.233,115.023z"/>
		</g>
		<g>
			<path d="M282.67,8.345c32.42,0,68.85,0.112,68.85,0.112V49.99l-94.74,0.2l0.996,10.969l65.375,1.167
				c0,0,27.704,1.634,28.637,27.771s0.009,38.738,0.009,38.738s3.217,35.905-30.231,37.806c-12.313,0.155-27.782,0.207-42.934,0.207
				c-30.306,0-59.344-0.207-59.344-0.207l-27.244-39.834l-27.475,40.184h-47.051v-158h46v70l44.302-54.937
				c0,0,9.939-15.596,29.883-15.596c0.523,0,1.02,0.011,1.557,0.033C247.642,8.38,264.488,8.345,282.67,8.345 M282.814,1.345
				c-21.338,0-35.92,0.048-43.351,0.143c-0.561-0.021-1.125-0.031-1.68-0.031c-21.882,0-33.693,15.642-35.61,18.451l-31.653,39.196
				V8.49v-6.5h-6.69h-46.5h-6.81v6.5v158v7.5h6.81h47.242h3.681l2.086-3.282l21.673-31.626l21.49,31.556l2.065,3.008l3.674,0.011
				c0.291,0.002,29.411,0.199,59.395,0.199c17.626,0,32.102-0.073,43.024-0.212l0.154-0.004l0.154-0.01
				c11.411-0.647,20.474-4.772,26.939-12.257c10.489-12.145,10.117-29.051,9.915-32.542c0.167-2.677,0.823-15.37-0.02-38.984
				c-0.603-16.865-10.347-25.428-18.415-29.642c-2.757-1.439-5.475-2.457-7.896-3.174l19.187-0.041l6.842-0.015V49.99V8.457V1.478
				l-6.835-0.021C351.32,1.456,314.874,1.345,282.814,1.345L282.814,1.345z"/>
		</g>
		<g>
			<polygon points="299.521,104.99 236.618,105.335 244.281,115.99 299.521,115.99 299.521,104.99 			"/>
		</g>
	</g>
</g>
</svg>
