<?xml version="1.0" encoding="utf-8"?>
<!-- Generator: Adobe Illustrator 16.0.0, SVG Export Plug-In . SVG Version: 6.00 Build 0)  -->
<!DOCTYPE svg PUBLIC "-//W3C//DTD SVG 1.1//EN" "http://www.w3.org/Graphics/SVG/1.1/DTD/svg11.dtd">
<svg version="1.1" id="pelota" xmlns="http://www.w3.org/2000/svg" xmlns:xlink="http://www.w3.org/1999/xlink" x="0px" y="0px"
	 width="172.998px" height="173.047px" viewBox="0 0 172.998 173.047" enable-background="new 0 0 172.998 173.047"
	 xml:space="preserve">
<g>
	<title>soccer ball</title>
	<g>
		<circle fill="#FFFFFF" stroke="#000000" stroke-width="4" stroke-linejoin="round" cx="86.499" cy="86.548" r="84.499"/>
		<path fill="none" stroke="#000000" stroke-width="4" stroke-linejoin="round" d="M28.068,25.52l5.514,5.619 M14.021,115.211
			c8.214,8.217,19.133,6.936,29.375,7.184 M24.76,49.846C7.299,62.329,3.068,87.686,3.708,87.541 M46.952,51.695
			c-1.812,13.265,2.988,27.846,12.946,43.387 M56.093,13.677c5.583-5.584,16.573-9.495,31.047-11.7 M68.362,148.213
			c-1.779,4.695-1.317,11.203-0.285,18.137 M70.282,28.257c10.028,1.139,28.166,2.632,42.534,10.775 M98.448,133.064
			c11.024,6.152,23.08,8.783,37.698,6.4 M124.054,68.053c-8.606,11.878-18.989,22.939-31.011,33.287 M132.483,25.983
			c-3.948-7.362-10.527-13.336-17.747-18.992 M155.492,52.547c3.556,0.107,7.006,1.564,10.314,5.016 M150.229,75.166
			c5.619,10.564,6.438,25.536,7.256,40.543"/>
	</g>
	<path d="M28.744,26.087c8.643-5.439,17.71-10.774,30.443-15.077c5.014,4.161,8.997,10.917,13.229,17.498
		c-10.242,9.778-19.986,19.346-25.748,26.885c-9.744-0.89-14.581-0.07-26.315-2.134C20.457,44.582,23.339,35.513,28.744,26.087z
		 M132.021,24.667c9.637,8.819,19.098,17.711,25.747,28.024c-1.955,9.316-3.732,19.665-6.4,25.036
		c-8.322-1.244-19.063-4.444-29.162-7.114c-4.908-12.693-8.215-22.226-12.092-32.859C117.582,32.206,124.943,27.227,132.021,24.667z
		 M15.622,132.531C6.119,117.82,1.42,100.523,2.179,83.027l2.097-0.25c1.921,12.163,4.41,23.971,11.061,33.002
		c-1.28,6.367-0.071,11.488,1.813,16.287L15.622,132.531z M58.19,92.521c12.98,2.133,25.5,4.268,37.698,6.4
		c3.77,11.844,4.268,23.721,5.547,35.564c-9.354,7.752-22.227,10.207-33.572,14.938c-13.229-8.535-18.6-18.068-26.174-27.313
		C46.028,112.117,50.829,102.158,58.19,92.521z M165.344,116.631c-6.366,16.74-17.887,31.027-32.896,40.795l-4.125-0.18
		c2.986-4.516,4.054-10.563,4.197-17.354c8.25-3.947,16.5-16.465,24.751-27.455C160.329,113.506,162.926,114.996,165.344,116.631z
		 M84.01,170.939c-12.281-0.375-24.332-3.42-35.314-8.926c7.077,2.631,13.052,5.084,19.276,2.949
		C69.855,167.633,74.23,169.729,84.01,170.939z"/>
</g>
</svg>
